# xmcd
#
# Track frame offsets:
# 150
# 25948
# 46045
# 59443
# 75710
# 89468
# 108048
# 121354
# 139860
# 151637
# 164990
# 180045
# 195100
# 206318
#
# Disc length: 3055 seconds
#
#
# Revision: 3
# Processed by: cddbd v1.5.2PL0 Copyright (c) Steve Scherf et al.
# Submitted via: FreeRIP 2.944 
#
DISCID=a40bed0e
DTITLE=Felipe and Falcão - 20 anos Ao vivo - 20 anos Ao vivo
DYEAR=2006
DGENRE=Country
TTITLE0=Pout-Pourra a) Em tempo de avanço b) Empreiteira perigosa c) Vara de Marmelo
TTITLE1=Pra sempre o seu retrato
TTITLE2=Vou mandar o paulo atras
TTITLE3=Deixa eu te amar por favor
TTITLE4=Cade ela
TTITLE5=Heroi sem medalha
TTITLE6=Da briga
TTITLE7=Vai por ai
TTITLE8=O de tonto não tem dono
TTITLE9=Grito de amor
TTITLE10=Melhor amiga sua
TTITLE11=Hoje não e nosso dia
TTITLE12=Comitiva dos solteiros
TTITLE13=Que pena
EXTD=emerson@betim.mg.gov.br
EXTT0=
EXTT1=
EXTT2=
EXTT3=
EXTT4=
EXTT5=
EXTT6=
EXTT7=
EXTT8=
EXTT9=
EXTT10=
EXTT11=
EXTT12=
EXTT13=
PLAYORDER=
